<svg id="Layer_1" data-name="Layer 1" xmlns="http://www.w3.org/2000/svg" viewBox="0 0 825.93 133.8"><defs><style>.cls-1,.cls-5{fill:#f36;}.cls-2{fill:none;stroke:#fff;stroke-width:0.7px;}.cls-2,.cls-4,.cls-5{stroke-miterlimit:10;}.cls-3{fill:#6cc;}.cls-4{fill:#7f7f7f;stroke:#7f7f7f;stroke-width:0.25px;}.cls-5{stroke:#f36;}</style></defs><title>testlogos</title><path class="cls-1" d="M78.71,56.15s-13-35-38.32-23.86S77,114.83,77,114.83s70.08-78.28,46.22-93.31C105.26,10.21,78.71,56.15,78.71,56.15Z"/><path class="cls-2" d="M46.05,30.56s31,113.38,68.82-11.19"/><path class="cls-2" d="M59.35,95c15.43-31.45,30-13.19,38.08,6.13"/><path class="cls-3" d="M100.83,133.58a2.25,2.25,0,0,0,1.77.06,77.63,77.63,0,0,0,18.47-10.26c39.61-29.81,46.7-99.68,46.77-118.85a2.21,2.21,0,0,0-3.39-1.86L140.09,18a2.21,2.21,0,0,0-1,2c1,12.6.59,61.24-41,92.52a76.88,76.88,0,0,1-14.79,8.72,2.21,2.21,0,0,0-.07,4Z"/><path class="cls-3" d="M50.79,132.68a2.25,2.25,0,0,1-1.77-.09,77.63,77.63,0,0,1-17.5-11.82C-7.69,85.53-.15,67.13,2.06,57.05a2.19,2.19,0,0,1,.8-1.27L21.33,41.38a2.21,2.21,0,0,1,3.53,2.15c-2.35,12.93-3.54,37.82,30.48,68.41a76.88,76.88,0,0,0,14,10,2.21,2.21,0,0,1-.28,4Z"/><path class="cls-4" d="M174.17,96.67l21.46-37.21L178,28.93h4.36l15.41,26.75,15.49-26.75h4.36l-17.7,30.52L221.5,96.67h-4.36L197.79,63.22l-19.3,33.44Z"/><path class="cls-4" d="M235.89,55.1V37.4h3.81V55.1h8.47v3.81H239.7V96.67h-3.81V58.91h-8.47V55.1Z"/><path class="cls-4" d="M258.33,55.1h3.81v7.58a24.42,24.42,0,0,1,2.75-3.26q5-5,10.33-5.29v4.15q-3.6.17-7.45,4a18.3,18.3,0,0,0-5.63,12.91V96.67h-3.81Z"/><path class="cls-4" d="M328.56,96.67h-3.81V88.2A28.56,28.56,0,0,1,322.33,91a23.26,23.26,0,0,1-39.71-16.43,23.26,23.26,0,0,1,39.71-16.47A28.76,28.76,0,0,1,324.75,61V55.1h3.81Zm-3.81-18.29V70.84a19.23,19.23,0,1,0-32.47,17.34,19.29,19.29,0,0,0,32.47-9.8Z"/><path class="cls-4" d="M362,51.33A23.23,23.23,0,0,1,385.2,74.61a23.24,23.24,0,1,1-39.67-16.47A22.39,22.39,0,0,1,362,51.33ZM348.37,61a19.19,19.19,0,0,0,0,27.16,19.22,19.22,0,0,0,32.81-13.57A19.22,19.22,0,0,0,348.37,61Z"/><path class="cls-4" d="M395.36,55.1h3.81v7.58a24.42,24.42,0,0,1,2.75-3.26q5-5,10.33-5.29v4.15q-3.6.17-7.45,4a18.31,18.31,0,0,0-5.63,12.91V96.67h-3.81Z"/><path class="cls-4" d="M465.34,96.67h-3.81V88.2A28.55,28.55,0,0,1,459.11,91,23.26,23.26,0,0,1,419.4,74.61a23.26,23.26,0,0,1,39.71-16.47A28.75,28.75,0,0,1,461.53,61v-32h3.81Zm-3.81-18.29V70.84a19.23,19.23,0,1,0-32.47,17.34,19.29,19.29,0,0,0,32.47-9.8Z"/><path class="cls-4" d="M483.48,41.46a3.6,3.6,0,0,1,1.12,2.67,3.64,3.64,0,0,1-1.12,2.71,3.83,3.83,0,0,1-5.38,0A3.65,3.65,0,0,1,477,44.13a3.6,3.6,0,0,1,1.12-2.67,3.83,3.83,0,0,1,5.38,0Zm-.78,13.63V96.67h-3.81V55.1Z"/><path class="cls-4" d="M500.05,64.37v32.3h-3.81V55.1h3.81v2.67a16.67,16.67,0,0,1,12.11-5.16,16,16,0,0,1,16.72,16.26V96.67h-3.81V69.19a12.18,12.18,0,0,0-3.83-9,12.93,12.93,0,0,0-18.14-.06A14.33,14.33,0,0,0,500.05,64.37Z"/><path class="cls-4" d="M586.45,96.67h-3.81V88.2A28.55,28.55,0,0,1,580.23,91a23.26,23.26,0,0,1-39.71-16.43,23.26,23.26,0,0,1,39.71-16.47A28.75,28.75,0,0,1,582.64,61V55.1h3.81Zm-3.81-18.29V70.84a19.23,19.23,0,1,0-32.47,17.34,19.29,19.29,0,0,0,32.47-9.8Z"/><path class="cls-4" d="M599.15,55.1H603v7.58a24.48,24.48,0,0,1,2.75-3.26q5-5,10.33-5.29v4.15q-3.6.17-7.45,4A18.31,18.31,0,0,0,603,75.2V96.67h-3.81Z"/><path class="cls-4" d="M644.28,92.94l-9.4,19.6h-3.73L642.38,89,626.16,55.1h4.32l13.8,29.8,13.8-29.8h4.28L644.28,93Z"/><path class="cls-5" d="M698.59,82.15q0,7-3.85,10.92a14,14,0,0,1-19.83,0q-4.09-4.13-4.09-11l6.94-2.71q1.19,6.44,3,7.92a5.46,5.46,0,0,0,3.64,1.14h.17a5.62,5.62,0,0,0,4-1.57q1.27-1.31,1.27-5.12V28.93h8.76Z"/><path class="cls-5" d="M733.1,49.55a24.1,24.1,0,0,1,24.09,24.13,24.09,24.09,0,1,1-41.11-17.06A23.2,23.2,0,0,1,733.1,49.55ZM722.41,63a15.08,15.08,0,1,0,10.69-4.45A14.58,14.58,0,0,0,722.41,63Z"/><path class="cls-5" d="M777.21,111.32h-9.27L779.53,87,763.32,53.11h9.86l11,23.83,11-23.83h9.82Z"/><path class="cls-5" d="M824.13,86.72a5.85,5.85,0,0,1,1.8,4.32,6.14,6.14,0,1,1-12.28,0,5.81,5.81,0,0,1,1.82-4.32,6.16,6.16,0,0,1,8.66,0Zm0-57.79V77.41h-8.76V28.93Z"/></svg>